<svg width="15" height="15" viewBox="0 0 15 15" fill="none" xmlns="http://www.w3.org/2000/svg">
<path d="M0.264975 7.23219L3.72127 8.52219L5.05907 12.8245C5.14467 13.1001 5.48162 13.2019 5.70527 13.0191L7.63187 11.4485C7.83382 11.2839 8.12147 11.2757 8.33252 11.4289L11.8074 13.9518C12.0467 14.1257 12.3856 13.9946 12.4456 13.7055L14.9912 1.46094C15.0567 1.14514 14.7464 0.881694 14.4457 0.997994L0.260925 6.47004C-0.0891252 6.60504 -0.0860752 7.10064 0.264975 7.23219ZM4.84347 7.83549L11.5984 3.67514C11.7198 3.60059 11.8447 3.76474 11.7404 3.86144L6.16567 9.04344C5.96972 9.22584 5.84332 9.46994 5.80752 9.73489L5.61762 11.1422C5.59247 11.3301 5.32852 11.3487 5.27667 11.1669L4.54632 8.60064C4.46267 8.30794 4.58457 7.99529 4.84347 7.83549Z" fill="black"/>
</svg>
